<svg xmlns="http://www.w3.org/2000/svg" width="16.938" height="21" viewBox="0 0 16.938 21">
  <defs>
    <style>
      .cls-1 {
        fill: #1a1a1a;
        fill-rule: evenodd;
      }
    </style>
  </defs>
  <path id="形状_9" data-name="形状 9" class="cls-1" d="M61.2,549.97H49.358a2.535,2.535,0,0,1-2.555-2.509V528.984H63.752v18.477A2.535,2.535,0,0,1,61.2,549.97ZM61.7,531H48.855v10.027H61.7V531Zm0,12.042H48.855v4.421a0.5,0.5,0,0,0,.5.5H61.2a0.5,0.5,0,0,0,.5-0.5V543.04Zm-6.423,3.846a1.13,1.13,0,1,1,1.151-1.13A1.141,1.141,0,0,1,55.278,546.886Z" transform="translate(-46.813 -528.969)"/>
</svg>
