<?xml version="1.0" standalone="no"?><!DOCTYPE svg PUBLIC "-//W3C//DTD SVG 1.1//EN" "http://www.w3.org/Graphics/SVG/1.1/DTD/svg11.dtd"><svg t="1618880189890" class="icon" viewBox="0 0 1024 1024" version="1.1" xmlns="http://www.w3.org/2000/svg" p-id="8997" xmlns:xlink="http://www.w3.org/1999/xlink" width="200" height="200"><defs><style type="text/css"></style></defs><path d="M852.683106 627.577945c-61.916111 0-112.16425-50.175892-112.16425-112.16425s50.248139-112.16425 112.16425-112.164251c61.988359 0 112.272621 50.175892 112.272621 112.164251s-50.284263 112.16425-112.272621 112.16425z m0-168.336685c-30.958056 0-56.027939 25.178255-56.02794 56.136311s25.069884 56.136311 56.02794 56.136311c31.030303 0 56.136311-25.178255 56.136311-56.136311 0-30.921932-25.106008-56.136311-56.136311-56.136311z m0-112.16425c-61.916111 0-112.16425-50.248139-112.16425-112.16425 0-61.988359 50.248139-112.272621 112.16425-112.272622 61.988359 0 112.272621 50.248139 112.272621 112.272622-0.036124 61.916111-50.284263 112.16425-112.272621 112.16425z m0-168.300561c-30.958056 0-56.027939 25.069884-56.02794 56.136311 0 30.958056 25.069884 56.027939 56.02794 56.027939 31.030303 0 56.136311-25.069884 56.136311-56.027939 0-31.066427-25.106008-56.136311-56.136311-56.136311zM516.04586 908.151127c-61.916111 0-112.16425-50.248139-112.16425-112.272621 0-61.916111 50.248139-112.16425 112.16425-112.164251 61.988359 0 112.272621 50.248139 112.272622 112.164251 0 61.988359-50.248139 112.272621-112.272622 112.272621z m0-168.300561c-30.958056 0-56.027939 25.069884-56.027939 56.02794 0 31.030303 25.069884 56.136311 56.027939 56.13631 31.030303 0 56.136311-25.069884 56.136311-56.13631 0-30.958056-25.069884-56.027939-56.136311-56.02794z m0-112.272621c-61.916111 0-112.16425-50.175892-112.16425-112.16425s50.248139-112.16425 112.16425-112.164251c61.988359 0 112.272621 50.175892 112.272622 112.164251s-50.248139 112.16425-112.272622 112.16425z m0-168.336685c-30.958056 0-56.027939 25.178255-56.027939 56.136311s25.069884 56.136311 56.027939 56.136311c31.030303 0 56.136311-25.178255 56.136311-56.136311 0-30.921932-25.069884-56.136311-56.136311-56.136311z m0-112.16425c-61.916111 0-112.16425-50.248139-112.16425-112.16425 0-61.988359 50.248139-112.272621 112.16425-112.272622 61.988359 0 112.272621 50.248139 112.272622 112.272622 0 61.916111-50.248139 112.16425-112.272622 112.16425z m0-168.300561c-30.958056 0-56.027939 25.069884-56.027939 56.136311 0 30.958056 25.069884 56.027939 56.027939 56.027939 31.030303 0 56.136311-25.069884 56.136311-56.027939 0-31.066427-25.069884-56.136311-56.136311-56.136311zM179.444738 908.151127c-61.916111 0-112.16425-50.248139-112.16425-112.272621 0-61.916111 50.248139-112.16425 112.16425-112.164251 61.988359 0 112.272621 50.248139 112.272622 112.164251-0.036124 61.988359-50.284263 112.272621-112.272622 112.272621z m0-168.300561c-30.958056 0-56.027939 25.069884-56.027939 56.02794 0 31.030303 25.106008 56.136311 56.027939 56.13631 31.030303 0 56.136311-25.069884 56.136311-56.13631 0-30.958056-25.106008-56.027939-56.136311-56.02794z m0-112.272621c-61.916111 0-112.16425-50.175892-112.16425-112.16425s50.248139-112.16425 112.16425-112.164251c61.988359 0 112.272621 50.175892 112.272622 112.164251s-50.284263 112.16425-112.272622 112.16425z m0-168.336685c-30.958056 0-56.027939 25.178255-56.027939 56.136311s25.106008 56.136311 56.027939 56.136311c31.030303 0 56.136311-25.178255 56.136311-56.136311 0-30.921932-25.106008-56.136311-56.136311-56.136311z m0-112.16425c-61.916111 0-112.16425-50.248139-112.16425-112.16425 0-61.988359 50.248139-112.272621 112.16425-112.272622 61.988359 0 112.272621 50.248139 112.272622 112.272622-0.036124 61.916111-50.284263 112.16425-112.272622 112.16425z m0-168.300561c-30.958056 0-56.027939 25.069884-56.027939 56.136311 0 30.958056 25.106008 56.027939 56.027939 56.027939 31.030303 0 56.136311-25.069884 56.136311-56.027939 0-31.066427-25.106008-56.136311-56.136311-56.136311z m673.238368 504.937806c61.988359 0 112.272621 50.248139 112.272621 112.164251 0 62.024482-50.248139 112.272621-112.272621 112.272621-61.916111 0-112.16425-50.248139-112.16425-112.272621-0.036124-61.916111 50.248139-112.16425 112.16425-112.164251z m0 168.300561c31.030303 0 56.136311-25.069884 56.136311-56.13631 0-30.958056-25.106008-56.027939-56.136311-56.02794-30.958056 0-56.027939 25.069884-56.02794 56.02794-0.036124 31.030303 25.069884 56.136311 56.02794 56.13631z" fill="#707070" p-id="8998"></path></svg>